<svg version="1.1" xmlns="http://www.w3.org/2000/svg" fill-rule="evenodd" clip-rule="evenodd" height="1023" width="1024" viewBox="0 0 1025 1024"><path d="M268.701 452.16c-0.505-6.707-3.288-15.562-6.327-21.379-6.957-13.158-17.457-19.104-32.514-19.104H92.089c-17.457 80.46-17.457 167.881 10.12 245.812h129.675c6.452-0.255 15.054-3.038 20.37-6.072 12.272-7.086 16.447-18.596 16.447-32.514V452.161z m-21.759 186.097H100.065V431.03h146.877v207.227z m332.344 18.975h28.339V411.42h-21.254v217.851L444.047 411.42h-28.086v245.812h21.254V439.636l142.071 217.596zM333.474 323.754h55.157c8.856-49.72 20.875-99.057 36.817-147.007l-3.038-21.379 16.322-3.288c24.038-4.808 48.455-7.336 72.869-7.336 24.923 0 49.465 3.038 73.883 7.971l9.74 2.024 3.288 9.49c18.091 51.614 31.249 105.51 40.99 159.405h55.033c-8.096-37.446-18.471-74.893-31.499-110.95l-15.687-43.648 40.735 22.264c56.172 30.742 103.613 75.147 137.137 129.8l1.644 2.659h75.147C829.773 175.234 678.594 79.971 511.602 79.971c-166.867 0-318.176 95.262-390.41 243.788h75.652c0.505-1.264 1.013-2.529 1.519-3.543l0.255-0.38 0.255-0.505c34.792-55.792 84.003-100.704 142.199-131.19l40.105-21-15.432 42.509c-13.408 37.066-24.038 75.402-32.259 114.113z m65.152 428.491h-53.009c5.441 20.62 11.384 41.114 18.471 61.359l14.676 42.254-39.47-21c-39.47-20.875-74.134-49.085-103.485-82.613h-84.383c80.209 119.3 214.563 191.789 360.175 191.789s279.97-72.489 360.175-191.789h-84.383c-27.326 31.249-59.335 58.068-95.642 78.436L651.646 853.2l14.928-43.518c6.452-18.976 11.894-38.081 16.827-57.436h-53.133c-5.312 22.644-11.259 45.162-18.216 67.431-4.303 13.918-8.981 27.961-14.423 41.494l-3.543 8.856-9.36 1.899c-24.038 4.808-48.581 7.336-73.123 7.336-22.394 0-44.533-2.659-66.546-6.707l-9.36-1.644-3.668-8.731c-4.808-11.514-8.981-23.91-12.904-35.802-7.971-24.288-14.676-49.211-20.495-74.134z m545.768-228.986H923.14v0.505H776.388v-91.339h159.655a623.214 623.214 0 0 0-4.173-21H755.641v0.505h-0.635v133.468h21.379v-0.635h146.752v91.469H755.636v21h167.372c13.538-38.711 20.24-79.45 21.254-120.44l0.38-13.028h-0.255v-0.505z"></path></svg>